<?xml version="1.0" encoding="UTF-8"?>
<!DOCTYPE svg PUBLIC "-//W3C//DTD SVG 1.0//EN" "http://www.w3.org/TR/2001/REC-SVG-20010904/DTD/svg10.dtd">
<!-- Creator: CorelDRAW -->
<svg xmlns="http://www.w3.org/2000/svg" xml:space="preserve" width="19.8013in" height="25.3472in" version="1.0" style="shape-rendering:geometricPrecision; text-rendering:geometricPrecision; image-rendering:optimizeQuality; fill-rule:evenodd; clip-rule:evenodd"
viewBox="0 0 9484.47 12140.87"
 xmlns:xlink="http://www.w3.org/1999/xlink"
 xmlns:xodm="http://www.corel.com/coreldraw/odm/2003">
 <defs>
  <style type="text/css">
   <![CDATA[
    .fil1 {fill:#1D313A}
    .fil0 {fill:#809CA8}
   ]]>
  </style>
 </defs>
 <g id="Layer_x0020_1">
  <metadata id="CorelCorpID_0Corel-Layer"/>
  <g id="_2908391961232">
   <path class="fil0" d="M11.3 4810.59c44.97,823.41 217.15,1537.82 431.25,2278.03 97.29,336.36 253.37,684.09 323.49,1024.56 76.36,370.86 54.23,847.11 101.8,1243.45 298.83,2489.28 3178.62,3121.77 5171.53,2629.72 775.98,-191.59 1326.91,-492.41 1767.84,-929.31 1113.58,-1103.4 707.42,-2261.76 949.53,-3095.44 100.15,-344.9 229.31,-671.84 329.99,-1016.52 214.81,-735.49 368.29,-1508.21 394.67,-2324.85 22.35,-691.98 -78.15,-1808.03 -282.81,-2418.84 -252.51,-753.61 -635.28,-1138.18 -1224.37,-1472.84 -571.97,-324.89 -1306.35,-551.21 -2048.33,-648 -1649.36,-215.2 -3320.26,-6.95 -4536.25,719.58 -296.3,177.03 -533.5,394.5 -717.35,631.27 -598.29,770.45 -713.42,2418.94 -660.99,3379.2z"/>
   <path class="fil1" d="M4274.7 395.63c-800.49,65.26 -1391.81,172.59 -2062.85,449.42 -1492.88,615.89 -1719.03,1676.63 -1815.42,3193.66 -68.71,1081.5 143.76,2278.05 481.86,3278.3 117.56,347.79 226.28,601.31 246.55,1014.96 40.02,816.9 83.06,1452.86 477.66,2020.86 758.26,1091.41 2233.15,1517.06 3597.38,1380.03 722.35,-72.57 1402.04,-267.93 1898.78,-608.15 440.48,-301.68 900.75,-765.43 1091.93,-1413.42 255.17,-864.93 33.88,-1285.52 338.46,-2169.45 521.71,-1514.11 701.01,-2740.27 466.12,-4359 -50.74,-349.61 -123.78,-713.1 -250.99,-1003.31 -66.12,-150.88 -136.84,-278.84 -218.69,-399.28 -421,-619.56 -1235.81,-979.9 -1961.74,-1176.44 -662.84,-179.47 -1554.85,-268.06 -2289.07,-208.19z"/>
  </g>
 </g>
</svg>
