<?xml version="1.0" encoding="UTF-8"?>
<!DOCTYPE svg PUBLIC "-//W3C//DTD SVG 1.0//EN" "http://www.w3.org/TR/2001/REC-SVG-20010904/DTD/svg10.dtd">
<!-- Creator: CorelDRAW -->
<svg xmlns="http://www.w3.org/2000/svg" xml:space="preserve" width="3.70065in" height="4.73708in" version="1.0" style="shape-rendering:geometricPrecision; text-rendering:geometricPrecision; image-rendering:optimizeQuality; fill-rule:evenodd; clip-rule:evenodd"
viewBox="0 0 595.29 762.01"
 xmlns:xlink="http://www.w3.org/1999/xlink"
 xmlns:xodm="http://www.corel.com/coreldraw/odm/2003">
 <defs>
  <style type="text/css">
   <![CDATA[
    .fil0 {fill:#1D313A}
   ]]>
  </style>
 </defs>
 <g id="Layer_x0020_1">
  <metadata id="CorelCorpID_0Corel-Layer"/>
  <path class="fil0" d="M0.71 301.93c2.81,51.67 13.63,96.53 27.06,142.97 6.11,21.11 15.9,42.92 20.3,64.32 4.78,23.25 3.41,53.16 6.39,78.04 18.75,156.23 199.5,195.94 324.58,165.06 48.72,-12.02 83.28,-30.91 110.99,-58.35 69.83,-69.26 44.38,-141.96 59.57,-194.3 6.28,-21.61 14.39,-42.14 20.71,-63.78 13.47,-46.14 23.14,-94.67 24.78,-145.9 1.38,-43.44 -4.92,-113.46 -17.76,-151.83 -15.86,-47.29 -39.88,-71.44 -76.85,-92.43 -35.88,-20.38 -81.96,-34.6 -128.56,-40.67 -103.51,-13.51 -208.36,-0.42 -284.7,45.14 -18.58,11.14 -33.51,24.78 -45.03,39.65 -37.57,48.34 -44.78,151.79 -41.49,212.07zm176.81 254.04c6.58,62.96 60.42,114.4 131.7,108.6 61.41,-5.09 114.97,-61.43 108.54,-131.05 -5.76,-62.39 -60.57,-116.28 -131.47,-109.27 -61.87,6.14 -116.18,60.95 -108.77,131.72zm-30.31 -417.4l304.37 0c17.2,0 31.29,14.07 31.29,31.27l0 93.83c0,17.2 -14.08,31.27 -31.29,31.27l-304.37 0c-17.18,0 -31.27,-14.07 -31.27,-31.27l0 -93.83c0,-17.2 14.08,-31.27 31.27,-31.27z"/>
 </g>
</svg>
