<?xml version="1.0" encoding="UTF-8"?>
<!DOCTYPE svg PUBLIC "-//W3C//DTD SVG 1.0//EN" "http://www.w3.org/TR/2001/REC-SVG-20010904/DTD/svg10.dtd">
<!-- Creator: CorelDRAW -->
<svg xmlns="http://www.w3.org/2000/svg" xml:space="preserve" width="4.74712in" height="4.96882in" version="1.0" style="shape-rendering:geometricPrecision; text-rendering:geometricPrecision; image-rendering:optimizeQuality; fill-rule:evenodd; clip-rule:evenodd"
viewBox="0 0 837.14 876.24"
 xmlns:xlink="http://www.w3.org/1999/xlink"
 xmlns:xodm="http://www.corel.com/coreldraw/odm/2003">
 <defs>
  <style type="text/css">
   <![CDATA[
    .fil0 {fill:#1D313A}
   ]]>
  </style>
 </defs>
 <g id="Layer_x0020_1">
  <metadata id="CorelCorpID_0Corel-Layer"/>
  <path class="fil0" d="M832.48 687.4c-79.32,114.13 -211.41,188.83 -360.93,188.83 -37.13,0 -73.2,-4.64 -107.62,-13.3 -37.57,-12.9 -21.63,-24.29 0.04,-37.01 45,-30.27 74.6,-81.71 74.6,-140.04 0,-79.45 -54.92,-146.06 -128.88,-163.95 -39.42,-60.99 -107.98,-101.33 -186,-101.33 -27.9,0 -54.59,5.18 -79.15,14.58 -8.48,4.07 -11.87,3.46 -12.29,-5.52 3.59,-223.28 173.75,-406.05 391.62,-429.57 25.95,-1.41 28.22,11.6 20.79,28.72 -31.26,59.73 -48.94,127.72 -48.94,199.81 0,235.03 187.85,426.17 421.58,431.54 17.08,0.86 25.89,12.15 15.19,27.23zm-708.78 78.23l146.18 0c44.04,0 79.74,-35.71 79.74,-79.74 0,-44.04 -35.71,-79.74 -79.74,-79.74 -9.29,0 -18.21,1.59 -26.5,4.51 -13.85,-53.18 -62.16,-92.41 -119.69,-92.41 -68.33,0 -123.69,55.36 -123.69,123.69 0,68.33 55.36,123.69 123.69,123.69z"/>
 </g>
</svg>
