<?xml version="1.0" encoding="UTF-8"?>
<!DOCTYPE svg PUBLIC "-//W3C//DTD SVG 1.1//EN" "http://www.w3.org/Graphics/SVG/1.1/DTD/svg11.dtd">
<!-- Creator: CorelDRAW -->
<svg xmlns="http://www.w3.org/2000/svg" xml:space="preserve" width="4.56963in" height="4.79887in" version="1.1" style="shape-rendering:geometricPrecision; text-rendering:geometricPrecision; image-rendering:optimizeQuality; fill-rule:evenodd; clip-rule:evenodd"
viewBox="0 0 545.02 572.36"
 xmlns:xlink="http://www.w3.org/1999/xlink"
 xmlns:xodm="http://www.corel.com/coreldraw/odm/2003">
 <defs>
  <style type="text/css">
   <![CDATA[
    .fil1 {fill:none}
    .fil0 {fill:#1D313A}
   ]]>
  </style>
 </defs>
 <g id="Layer_x0020_1">
  <metadata id="CorelCorpID_0Corel-Layer"/>
  <path class="fil0" d="M535.33 181.46l0.01 0.01c12.91,12.91 12.9,34.04 0,46.94l-58.55 58.55 58.55 58.55c12.91,12.91 12.9,34.04 0,46.94l-0.01 0.01c-12.9,12.9 -34.04,12.9 -46.93,0l-58.55 -58.55 -58.55 58.55c-12.9,12.9 -34.04,12.9 -46.93,-0l-0.01 -0.01c-12.9,-12.9 -12.91,-34.02 0,-46.93l58.55 -58.55 -58.55 -58.55c-12.9,-12.9 -12.91,-34.02 0,-46.94l0.01 -0.01c12.91,-12.91 34.02,-12.91 46.93,0l58.55 58.55 58.55 -58.55c12.91,-12.91 34.02,-12.91 46.94,0z"/>
  <path class="fil1" d="M426.96 0l0.01 0c18.26,0 33.19,27.21 33.19,60.44l0 451.47c0,33.23 -14.94,60.44 -33.19,60.44l-0.01 0c-18.25,0 -33.19,-27.18 -33.19,-60.44l0 -451.47c0,-33.26 14.93,-60.44 33.19,-60.44z"/>
  <path class="fil0" d="M107.16 192.28l-74.86 0c-17.76,0 -32.29,14.53 -32.29,32.29l0 124.75c0,17.76 14.53,32.29 32.29,32.29l74.89 0 74.82 70.43 52.49 49.38c3.23,3.06 6.97,5.79 15.03,5.68 14.54,0 26.42,-11.88 26.42,-26.42l0 -387.47c0,-14.54 -11.88,-26.42 -26.42,-26.42 -5.89,-0.1 -15.07,1.99 -19.52,7.24l-47.99 46.2 -74.85 72.05z"/>
 </g>
</svg>
