<?xml version="1.0" encoding="UTF-8"?>
<!DOCTYPE svg PUBLIC "-//W3C//DTD SVG 1.1//EN" "http://www.w3.org/Graphics/SVG/1.1/DTD/svg11.dtd">
<!-- Creator: CorelDRAW -->
<svg xmlns="http://www.w3.org/2000/svg" xml:space="preserve" width="4.76159in" height="4.69141in" version="1.1" style="shape-rendering:geometricPrecision; text-rendering:geometricPrecision; image-rendering:optimizeQuality; fill-rule:evenodd; clip-rule:evenodd"
viewBox="0 0 2157.99 2126.18"
 xmlns:xlink="http://www.w3.org/1999/xlink"
 xmlns:xodm="http://www.corel.com/coreldraw/odm/2003">
 <defs>
  <style type="text/css">
   <![CDATA[
    .fil0 {fill:#1D313A}
   ]]>
  </style>
 </defs>
 <g id="Layer_x0020_1">
  <metadata id="CorelCorpID_0Corel-Layer"/>
  <path class="fil0" d="M583.86 0l990.22 0c110.26,0 200.46,90.2 200.46,200.46l0 1725.26c0,110.26 -90.2,200.46 -200.46,200.46l-990.22 0c-110.26,0 -200.46,-90.2 -200.46,-200.46l0 -1725.26c0,-110.26 90.2,-200.46 200.46,-200.46zm1447.97 466l0.05 0c69.39,0 126.11,56.77 126.11,126.11l0 941.96c0,69.34 -56.77,126.11 -126.11,126.11l-0.05 0c-69.34,0 -126.11,-56.72 -126.11,-126.11l0 -941.96c0,-69.39 56.72,-126.11 126.11,-126.11zm-1905.72 0l0.06 0c69.39,0 126.11,56.77 126.11,126.11l0 941.96c0,69.34 -56.78,126.11 -126.11,126.11l-0.06 0c-69.33,0 -126.11,-56.72 -126.11,-126.11l0 -941.96c0,-69.39 56.72,-126.11 126.11,-126.11zm539.05 -227.53l827.66 0c29.22,0 53.11,23.88 53.11,53.11l0 1543.02c0,29.22 -23.88,53.11 -53.11,53.11l-827.66 0c-29.22,0 -53.11,-23.88 -53.11,-53.11l0 -1543.02c0,-29.22 23.88,-53.11 53.11,-53.11z"/>
  <path class="fil0" d="M2094.07 47.98l0.04 0.04c49.07,49.07 49.01,129.34 0,178.35l-1851.84 1851.84c-49.01,49.01 -129.34,49.01 -178.35,0l-0.04 -0.04c-49.01,-49.01 -49.07,-129.28 0,-178.35l1851.84 -1851.84c49.07,-49.07 129.28,-49.07 178.35,0z"/>
 </g>
</svg>
