<?xml version="1.0" encoding="UTF-8"?>
<!DOCTYPE svg PUBLIC "-//W3C//DTD SVG 1.0//EN" "http://www.w3.org/TR/2001/REC-SVG-20010904/DTD/svg10.dtd">
<!-- Creator: CorelDRAW -->
<svg xmlns="http://www.w3.org/2000/svg" xml:space="preserve" width="4.89353in" height="3.84508in" version="1.0" style="shape-rendering:geometricPrecision; text-rendering:geometricPrecision; image-rendering:optimizeQuality; fill-rule:evenodd; clip-rule:evenodd"
viewBox="0 0 1526.3 1199.29"
 xmlns:xlink="http://www.w3.org/1999/xlink"
 xmlns:xodm="http://www.corel.com/coreldraw/odm/2003">
 <defs>
  <style type="text/css">
   <![CDATA[
    .fil0 {fill:#1D313A;fill-rule:nonzero}
   ]]>
  </style>
 </defs>
 <g id="Layer_x0020_1">
  <metadata id="CorelCorpID_0Corel-Layer"/>
  <path class="fil0" d="M1355.67 589.79l0.15 12.1c0,164.75 -66.94,314.06 -174.99,422.15 -108.09,108.35 -257.47,175.25 -422.41,175.25 -34.54,0 -69.31,-3.08 -103.64,-9.13 -33.77,-5.9 -67.49,-14.99 -100.52,-27.01 -33.88,-12.24 -51.39,-49.72 -39.15,-83.6 12.24,-33.88 49.72,-51.39 83.6,-39.15 25.16,9.16 51.54,16.22 78.55,20.93 26.46,4.68 53.69,7.05 81.15,7.05 128.83,0 245.49,-52.24 329.87,-136.62 84.41,-84.27 136.62,-200.96 136.62,-329.87l-0.15 -12.1 -177.14 0c-8.13,0 -15.36,-3.86 -19.89,-9.91 -7.94,-11.13 2.89,-24.08 8.31,-29.76 68.94,-76.88 137.85,-153.8 206.79,-230.69 9.17,-10.24 16.96,-19.96 30.65,-19.96 13.47,0 20.89,12.25 28.87,20.82l214.77 232.21c4.34,4.71 14.47,16.88 5.75,28.39 -4.56,5.42 -11.47,8.91 -19.03,8.91l-148.16 0zm-1185.04 19.7l-0.15 -12.1c0,-164.75 66.94,-314.06 174.99,-422.15 108.09,-108.35 257.47,-175.25 422.41,-175.25 34.55,0 69.31,3.08 103.64,9.13 33.77,5.9 67.49,14.99 100.52,27.01 33.88,12.24 51.39,49.72 39.15,83.6 -12.25,33.88 -49.72,51.39 -83.6,39.15 -25.16,-9.16 -51.54,-16.22 -78.55,-20.93 -26.46,-4.68 -53.69,-7.05 -81.15,-7.05 -128.83,0 -245.49,52.24 -329.87,136.62 -84.41,84.27 -136.62,200.96 -136.62,329.87l0.15 12.1 177.14 0c8.13,0 15.36,3.86 19.89,9.91 7.94,11.13 -2.89,24.08 -8.31,29.76 -68.94,76.88 -137.85,153.8 -206.79,230.69 -9.17,10.24 -16.96,19.96 -30.65,19.96 -13.47,0 -20.89,-12.25 -28.87,-20.82l-214.77 -232.21c-4.34,-4.71 -14.47,-16.88 -5.75,-28.39 4.56,-5.42 11.47,-8.91 19.04,-8.91l148.16 0z"/>
 </g>
</svg>
