<?xml version="1.0" encoding="UTF-8"?>
<!DOCTYPE svg PUBLIC "-//W3C//DTD SVG 1.0//EN" "http://www.w3.org/TR/2001/REC-SVG-20010904/DTD/svg10.dtd">
<!-- Creator: CorelDRAW -->
<svg xmlns="http://www.w3.org/2000/svg" xml:space="preserve" width="4.8363in" height="4.79886in" version="1.0" style="shape-rendering:geometricPrecision; text-rendering:geometricPrecision; image-rendering:optimizeQuality; fill-rule:evenodd; clip-rule:evenodd"
viewBox="0 0 1099.6 1091.09"
 xmlns:xlink="http://www.w3.org/1999/xlink"
 xmlns:xodm="http://www.corel.com/coreldraw/odm/2003">
 <defs>
  <style type="text/css">
   <![CDATA[
    .fil0 {fill:#1D313A}
   ]]>
  </style>
 </defs>
 <g id="Layer_x0020_1">
  <metadata id="CorelCorpID_0Corel-Layer"/>
  <path class="fil0" d="M688.52 126.89c165.19,72.65 273.98,236.86 273.98,420.12 0,179.76 -103.38,335.4 -253.9,410.65 -41.95,18.42 -63.05,62.29 -49.34,94.56 13.55,31.89 56.42,51.85 108.74,29.08 196.53,-97.4 331.61,-300.08 331.61,-534.29 0,-239.11 -140.79,-445.35 -344.03,-540.27 -39.68,-16.31 -80.47,-1.46 -98.27,27.7 -15.55,25.53 -9.12,74.98 31.21,92.45zm-484.25 239.65l-142.71 0c-33.86,0 -61.56,27.7 -61.56,61.56l0 237.81c0,33.86 27.7,61.56 61.56,61.56l142.76 0 142.63 134.27 100.05 94.13c6.17,5.84 13.28,11.04 28.64,10.82 27.72,0 50.36,-22.64 50.36,-50.36l0 -738.64c0,-27.72 -22.64,-50.36 -50.36,-50.36 -11.23,-0.19 -28.73,3.79 -37.22,13.79l-91.48 88.07 -142.68 137.35zm612.73 180.47c0,-119.42 -66.81,-223.23 -165.08,-276.11l0 552.22c98.27,-52.88 165.08,-156.69 165.08,-276.11z"/>
 </g>
</svg>
