<?xml version="1.0" encoding="UTF-8"?>
<!DOCTYPE svg PUBLIC "-//W3C//DTD SVG 1.0//EN" "http://www.w3.org/TR/2001/REC-SVG-20010904/DTD/svg10.dtd">
<!-- Creator: CorelDRAW -->
<svg xmlns="http://www.w3.org/2000/svg" xml:space="preserve" width="4.72641in" height="4.808in" version="1.0" style="shape-rendering:geometricPrecision; text-rendering:geometricPrecision; image-rendering:optimizeQuality; fill-rule:evenodd; clip-rule:evenodd"
viewBox="0 0 652.72 663.99"
 xmlns:xlink="http://www.w3.org/1999/xlink"
 xmlns:xodm="http://www.corel.com/coreldraw/odm/2003">
 <defs>
  <style type="text/css">
   <![CDATA[
    .fil0 {fill:#1D313A}
   ]]>
  </style>
 </defs>
 <g id="Layer_x0020_1">
  <metadata id="CorelCorpID_0Corel-Layer"/>
  <path class="fil0" d="M331.51 0c130.88,0 244.06,75.85 297.95,186 54.74,111.85 22.8,300.75 -203.33,284.14 -66.64,-11.11 -105.82,58.47 -74.8,97.69 40.93,35.55 34.17,81.29 -19.81,95.17 -9.79,2.51 -20.14,-0.46 -30.02,-1.35 -169.02,-15.15 -301.49,-157.2 -301.49,-330.15 0,-183.09 148.42,-331.51 331.51,-331.51zm196.68 221.61c31.3,0 56.68,25.38 56.68,56.68 0,31.3 -25.38,56.68 -56.68,56.68 -31.3,0 -56.68,-25.38 -56.68,-56.68 0,-31.3 25.38,-56.68 56.68,-56.68zm-113.38 -148.09c31.3,0 56.68,25.38 56.68,56.68 0,31.3 -25.38,56.68 -56.68,56.68 -31.3,0 -56.68,-25.38 -56.68,-56.68 0,-31.3 25.38,-56.68 56.68,-56.68zm-293.87 148.09c31.3,0 56.68,25.38 56.68,56.68 0,31.3 -25.38,56.68 -56.68,56.68 -31.3,0 -56.68,-25.38 -56.68,-56.68 0,-31.3 25.38,-56.68 56.68,-56.68zm111.08 -148.09c31.3,0 56.68,25.38 56.68,56.68 0,31.3 -25.38,56.68 -56.68,56.68 -31.3,0 -56.68,-25.38 -56.68,-56.68 0,-31.3 25.38,-56.68 56.68,-56.68z"/>
 </g>
</svg>
