<?xml version="1.0" encoding="UTF-8"?>
<!DOCTYPE svg PUBLIC "-//W3C//DTD SVG 1.0//EN" "http://www.w3.org/TR/2001/REC-SVG-20010904/DTD/svg10.dtd">
<!-- Creator: CorelDRAW -->
<svg xmlns="http://www.w3.org/2000/svg" xml:space="preserve" width="3.80891in" height="4.74225in" version="1.0" style="shape-rendering:geometricPrecision; text-rendering:geometricPrecision; image-rendering:optimizeQuality; fill-rule:evenodd; clip-rule:evenodd"
viewBox="0 0 2168.47 2699.83"
 xmlns:xlink="http://www.w3.org/1999/xlink"
 xmlns:xodm="http://www.corel.com/coreldraw/odm/2003">
 <defs>
  <style type="text/css">
   <![CDATA[
    .fil0 {fill:#1D313A}
   ]]>
  </style>
 </defs>
 <g id="Layer_x0020_1">
  <metadata id="CorelCorpID_0Corel-Layer"/>
  <path class="fil0" d="M443.89 530.28c187.13,-167.76 374.27,-335.46 561.4,-503.22 13.82,-13.14 45.31,-39.55 72.4,-20.18 14.7,10.97 24.18,28.65 24.18,48.36l0 464.01c291.64,6.23 555.1,127.06 747.18,319.14 197.29,197.29 319.41,469.97 319.41,771.02 0,300.71 -122.18,573.25 -319.41,770.55 -197.29,197.77 -469.97,319.88 -771.02,319.88 -267.8,0 -516.16,-97.66 -708.1,-261.57 -191.4,-163.56 -326.59,-393.5 -368.44,-658.26 -10.29,-64.88 34,-125.98 98.88,-136.27 64.88,-10.29 125.98,34 136.27,98.88 32.71,206.78 138.44,386.53 288.25,514.53 149.48,127.67 343.45,203.73 553.14,203.73 235.15,0 448.09,-95.36 602.11,-249.38 154.08,-153.81 249.38,-366.82 249.38,-602.11 0,-235.15 -95.36,-448.09 -249.38,-602.11 -148.8,-148.8 -352.6,-242.88 -578.27,-249.04l0 407.05c0,18.56 -8.53,35.29 -21.74,46.39 -28.04,21.27 -57.64,-3.39 -69.08,-13.95l-564.99 -522.66c-20.86,-19.37 -50.73,-37.52 -50.73,-70.23 0,-33.32 23.7,-52.29 48.56,-74.57z"/>
 </g>
</svg>
