<?xml version="1.0" encoding="UTF-8"?>
<!DOCTYPE svg PUBLIC "-//W3C//DTD SVG 1.0//EN" "http://www.w3.org/TR/2001/REC-SVG-20010904/DTD/svg10.dtd">
<!-- Creator: CorelDRAW -->
<svg xmlns="http://www.w3.org/2000/svg" xml:space="preserve" width="4.76159in" height="4.69141in" version="1.0" style="shape-rendering:geometricPrecision; text-rendering:geometricPrecision; image-rendering:optimizeQuality; fill-rule:evenodd; clip-rule:evenodd"
viewBox="0 0 2597.02 2558.74"
 xmlns:xlink="http://www.w3.org/1999/xlink"
 xmlns:xodm="http://www.corel.com/coreldraw/odm/2003">
 <defs>
  <style type="text/css">
   <![CDATA[
    .fil0 {fill:#1D313A}
   ]]>
  </style>
 </defs>
 <g id="Layer_x0020_1">
  <metadata id="CorelCorpID_0Corel-Layer"/>
  <path class="fil0" d="M702.64 0l1191.68 0c132.69,0 241.24,108.55 241.24,241.24l0 2076.26c0,132.69 -108.55,241.24 -241.24,241.24l-1191.68 0c-132.69,0 -241.24,-108.55 -241.24,-241.24l0 -2076.26c0,-132.69 108.55,-241.24 241.24,-241.24zm1742.55 560.8l0.06 0c83.51,0 151.77,68.32 151.77,151.77l0 1133.6c0,83.44 -68.32,151.77 -151.77,151.77l-0.06 0c-83.44,0 -151.77,-68.26 -151.77,-151.77l0 -1133.6c0,-83.51 68.26,-151.77 151.77,-151.77zm-2293.43 0l0.07 0c83.5,0 151.77,68.32 151.77,151.77l0 1133.6c0,83.44 -68.33,151.77 -151.77,151.77l-0.07 0c-83.44,0 -151.77,-68.26 -151.77,-151.77l0 -1133.6c0,-83.51 68.26,-151.77 151.77,-151.77zm648.72 -273.82l996.05 0c35.17,0 63.91,28.74 63.91,63.91l0 1856.95c0,35.17 -28.74,63.91 -63.91,63.91l-996.05 0c-35.17,0 -63.91,-28.74 -63.91,-63.91l0 -1856.95c0,-35.17 28.74,-63.91 63.91,-63.91z"/>
 </g>
</svg>
